<?xml version="1.0" encoding="utf-8"?>
<!-- Generator: Adobe Illustrator 23.1.1, SVG Export Plug-In . SVG Version: 6.00 Build 0)  -->
<svg version="1.1" id="Layer_1" xmlns="http://www.w3.org/2000/svg" xmlns:xlink="http://www.w3.org/1999/xlink" x="0px" y="0px"
	 viewBox="0 0 200 200" style="enable-background:new 0 0 200 200;" xml:space="preserve">
<style type="text/css">
	.st0{fill:#323131;}
	.st1{fill:#FFFFFF;}
</style>
<path class="st0" d="M192.81,99.62c0,51.15-41.47,92.62-92.62,92.62c-51.15,0-92.62-41.47-92.62-92.62C7.57,48.47,49.03,7,100.19,7
	C151.34,7,192.81,48.47,192.81,99.62"/>
<path class="st1" d="M145.73,97.31c1.82,5.64-3.99,8.78-8.1,11.36c-4.38,2.75-8.95,4.64-13.86,6.21
	c-9.34,2.98-19.03,4.91-28.07,8.78c-7.45,3.19-14.52,7.78-17.42,15.69c-1.94,5.29,0.09,11.02,4.62,14.21
	c10.17,7.16,25.94,3.37,32.37-6.95c4.88-7.85,2.96-18.08,0.18-26.27c-3.83-11.3-10.4-21.49-15.66-32.13
	c-4.5-9.1-10.64-22.15-7.95-32.45c1.17-4.46,5.95-7.59,10.35-7.88c6.36-0.43,7.14,5.76,6.42,10.66
	c-1.76,11.98-13.1,22.77-24.48,25.86c-8.3,2.25-21.51,0.98-24.13-8.79c-0.96-3.57-6.49-2.05-5.53,1.53c4.8,17.91,29.43,15.8,41.74,8
	c9.13-5.79,16.54-15.6,18.13-26.41c1.11-7.58-1.76-15.81-10.43-16.5c-7.92-0.63-15.03,4.68-17.59,12.02
	c-3.16,9.04,1.68,20.63,5.02,28.91c4.18,10.37,10.05,19.9,14.9,29.95c4.29,8.88,9.38,21.11,4.08,30.61
	c-4.13,7.41-14.44,9.18-21.85,6.43c-10.85-4.02-1.84-14.98,4.18-18.61c11.1-6.69,24.81-8.24,36.89-12.55
	c9.2-3.28,25.67-10.99,21.74-23.2C150.13,92.27,144.59,93.77,145.73,97.31"/>
</svg>

